<svg width="252" height="54" viewBox="0 0 252 54" fill="none" xmlns="http://www.w3.org/2000/svg">
<path d="M75.2386 23.8737H68.5729L69.0435 22.7915V45.2979H67.1143V22.7915L67.679 23.8737H60.9192V22.1642H75.2386V23.8737Z" fill="#003BE5"/>
<path d="M77.4596 45.2979V28.6416H79.4044V33.5507L78.7143 33.3311C78.7771 32.8083 78.9287 32.2646 79.1692 31.7C79.4201 31.1249 79.7651 30.5864 80.2043 30.0845C80.6434 29.5827 81.1924 29.1801 81.8511 28.8769C82.5203 28.5632 83.3149 28.4064 84.2351 28.4064C84.9042 28.4064 85.4427 28.4639 85.8505 28.5789C86.2583 28.6939 86.5145 28.7828 86.619 28.8455L86.0858 30.7276C85.9812 30.6544 85.7669 30.5603 85.4427 30.4453C85.1186 30.3302 84.6533 30.2727 84.0469 30.2727C83.1686 30.2727 82.4314 30.4453 81.8354 30.7903C81.2394 31.1249 80.7637 31.5641 80.4082 32.1078C80.0527 32.6515 79.7965 33.2318 79.6397 33.8487C79.4828 34.4551 79.4044 35.0407 79.4044 35.6053V45.2979H77.4596Z" fill="#003BE5"/>
<path d="M89.9607 52.2616C89.5738 52.2616 89.2183 52.2355 88.8942 52.1832C88.5805 52.1414 88.3818 52.0995 88.2982 52.0577V50.3482C88.4341 50.4109 88.6537 50.4632 88.9569 50.505C89.2706 50.5573 89.5686 50.5834 89.8509 50.5834C90.5723 50.5834 91.1683 50.4161 91.6389 50.0815C92.1198 49.7574 92.5172 49.3235 92.8308 48.7798C93.1445 48.2361 93.4111 47.6505 93.6307 47.0232L94.211 45.345L88.3609 28.6416H90.3998L95.4187 43.557H95.1364L100.092 28.6416H102.084L95.748 46.9291C95.4344 47.8387 95.058 48.7014 94.6188 49.5169C94.1797 50.3325 93.5941 50.9912 92.8622 51.4931C92.1303 52.0054 91.1631 52.2616 89.9607 52.2616Z" fill="#003BE5"/>
<path d="M113.511 45.5959C112.235 45.5959 111.053 45.2875 109.966 44.6706C108.879 44.0537 108 43.2172 107.331 42.1612C106.672 41.1051 106.343 39.9184 106.343 38.6009C106.343 38.5695 106.343 38.5434 106.343 38.5225C106.343 38.5016 106.343 38.4807 106.343 38.4598L107.786 38.4284C107.786 38.4493 107.786 38.4702 107.786 38.4911C107.786 38.512 107.786 38.5329 107.786 38.5539C107.786 39.4949 108.037 40.3627 108.539 41.1574C109.051 41.952 109.72 42.5846 110.546 43.0551C111.383 43.5257 112.287 43.7609 113.26 43.7609C114.87 43.7609 116.193 43.1911 117.228 42.0514C118.273 40.9012 118.796 39.2074 118.796 36.9698C118.796 34.7218 118.278 33.0279 117.243 31.8882C116.208 30.7485 114.88 30.1786 113.26 30.1786C112.287 30.1786 111.383 30.4139 110.546 30.8844C109.72 31.3549 109.051 31.9823 108.539 32.7665C108.037 33.5507 107.786 34.4185 107.786 35.37L106.343 35.323C106.343 34.0055 106.672 32.824 107.331 31.7784C108 30.7328 108.879 29.912 109.966 29.316C111.053 28.7096 112.235 28.4064 113.511 28.4064C114.859 28.4064 116.083 28.7409 117.181 29.4101C118.289 30.0689 119.167 31.036 119.816 32.3117C120.464 33.5873 120.788 35.14 120.788 36.9698C120.788 38.8205 120.464 40.3889 119.816 41.675C119.178 42.961 118.31 43.9387 117.212 44.6079C116.114 45.2666 114.88 45.5959 113.511 45.5959ZM105.825 45.2979V20.784H107.786V45.2979H105.825Z" fill="#003BE5"/>
<path d="M125.746 37.7853V36.0444H139.234L138.857 36.5777C138.857 36.5149 138.857 36.4627 138.857 36.4208C138.857 36.3686 138.857 36.3163 138.857 36.264C138.857 35.187 138.627 34.1833 138.167 33.2527C137.707 32.3221 137.038 31.5745 136.16 31.0099C135.292 30.4453 134.231 30.163 132.976 30.163C131.7 30.163 130.576 30.4557 129.604 31.0413C128.631 31.6163 127.873 32.4162 127.33 33.4409C126.786 34.4551 126.514 35.6366 126.514 36.9855C126.514 38.3447 126.781 39.5419 127.314 40.5771C127.858 41.6018 128.616 42.4016 129.588 42.9767C130.56 43.5413 131.695 43.8237 132.991 43.8237C133.943 43.8237 134.769 43.7086 135.47 43.4786C136.181 43.2381 136.766 42.9244 137.226 42.5376C137.697 42.1507 138.052 41.7429 138.293 41.3142C138.544 40.8751 138.69 40.4621 138.732 40.0752H140.661C140.619 40.6921 140.42 41.3247 140.065 41.973C139.72 42.6108 139.223 43.2068 138.575 43.7609C137.937 44.3151 137.143 44.7647 136.191 45.1097C135.25 45.4443 134.163 45.6116 132.929 45.6116C131.319 45.6116 129.886 45.2457 128.631 44.5138C127.387 43.7818 126.404 42.7728 125.683 41.4868C124.972 40.1902 124.616 38.7002 124.616 37.0168C124.616 35.323 124.977 33.833 125.698 32.5469C126.42 31.2504 127.408 30.2361 128.663 29.5042C129.917 28.7723 131.345 28.4064 132.944 28.4064C134.576 28.4064 135.987 28.7775 137.179 29.5199C138.371 30.2623 139.291 31.2713 139.939 32.5469C140.588 33.8121 140.912 35.2341 140.912 36.8129C140.912 36.9489 140.907 37.1214 140.896 37.3305C140.896 37.5396 140.891 37.6912 140.881 37.7853H125.746Z" fill="#003BE5"/>
<path d="M149.91 45.2979L146.71 22.1642H153.219L155.227 44.3099L154.333 44.2628L157.579 22.1642H165.311L168.542 44.2628L167.648 44.3099L169.656 22.1642H176.165L172.965 45.2979H163.288L161.14 26.2733H161.767L159.603 45.2979H149.91Z" fill="#2FC18C"/>
<path d="M183.446 45.6744C182.254 45.6744 181.187 45.4862 180.246 45.1097C179.305 44.7229 178.563 44.1687 178.019 43.4472C177.475 42.7153 177.203 41.8266 177.203 40.781C177.203 39.5472 177.554 38.5539 178.254 37.801C178.965 37.0482 179.87 36.4784 180.967 36.0915C182.076 35.7046 183.221 35.4589 184.402 35.3543C186.086 35.1975 187.22 35.0616 187.806 34.9466C188.391 34.8315 188.684 34.6276 188.684 34.3349C188.684 34.3244 188.684 34.3192 188.684 34.3192C188.684 33.9323 188.449 33.603 187.978 33.3311C187.518 33.0488 186.901 32.9076 186.127 32.9076C185.291 32.9076 184.669 33.0645 184.261 33.3782C183.853 33.6814 183.649 34.1258 183.649 34.7113H177.423C177.423 33.3102 177.815 32.1339 178.599 31.1824C179.383 30.2309 180.434 29.5147 181.752 29.0337C183.08 28.5423 184.554 28.2966 186.175 28.2966C187.712 28.2966 189.149 28.5266 190.488 28.9867C191.836 29.4467 192.929 30.1525 193.766 31.104C194.602 32.045 195.02 33.2527 195.02 34.727C195.02 34.9466 195.02 35.1661 195.02 35.3857C195.02 35.6053 195.02 35.8249 195.02 36.0444V41.2044C195.02 41.6645 195.031 42.1089 195.052 42.5376C195.073 42.9663 195.135 43.3636 195.24 43.7296C195.355 44.1164 195.506 44.451 195.695 44.7333C195.883 45.0052 196.034 45.1934 196.149 45.2979H189.97C189.876 45.2038 189.74 45.0313 189.562 44.7804C189.384 44.5294 189.238 44.2419 189.123 43.9178C188.966 43.4472 188.851 43.0081 188.778 42.6003C188.715 42.1821 188.684 41.675 188.684 41.079L190.064 42.0357C189.782 42.799 189.301 43.4525 188.621 43.9962C187.952 44.5399 187.163 44.9581 186.253 45.2509C185.354 45.5332 184.418 45.6744 183.446 45.6744ZM185.328 41.1888C185.871 41.1888 186.405 41.0685 186.927 40.828C187.461 40.5875 187.905 40.1902 188.26 39.636C188.616 39.0714 188.794 38.3081 188.794 37.3462V36.7502L190.409 38.052C189.719 38.2925 188.951 38.4963 188.104 38.6636C187.257 38.8205 186.446 38.9407 185.673 39.0244C184.951 39.0976 184.413 39.2178 184.057 39.3851C183.712 39.5419 183.54 39.7981 183.54 40.1536C183.54 40.5091 183.696 40.7705 184.01 40.9378C184.324 41.1051 184.763 41.1888 185.328 41.1888Z" fill="#2FC18C"/>
<path d="M204.466 20.784V45.2979H198.239V20.784H204.466Z" fill="#2FC18C"/>
<path d="M214.146 20.784V45.2979H207.919V20.784H214.146Z" fill="#2FC18C"/>
<path d="M219.905 38.695V34.9309H229.723L229.252 35.7464C229.252 35.6628 229.252 35.5739 229.252 35.4798C229.252 35.3752 229.252 35.2864 229.252 35.2132C229.252 34.8577 229.148 34.4917 228.939 34.1153C228.74 33.7284 228.411 33.4043 227.951 33.1429C227.501 32.8815 226.895 32.7508 226.131 32.7508C225.389 32.7508 224.767 32.9076 224.265 33.2213C223.763 33.535 223.387 34.0003 223.136 34.6172C222.885 35.2236 222.759 35.966 222.759 36.8443C222.759 37.7644 222.879 38.5486 223.12 39.1969C223.36 39.8452 223.742 40.3418 224.265 40.6869C224.788 41.0215 225.473 41.1888 226.319 41.1888C226.821 41.1888 227.25 41.1522 227.606 41.079C227.961 41.0058 228.243 40.9117 228.453 40.7967C228.672 40.6816 228.834 40.5562 228.939 40.4202C229.054 40.2843 229.122 40.1536 229.143 40.0281H235.385C235.312 40.7601 235.045 41.4658 234.585 42.1455C234.135 42.8251 233.513 43.4368 232.719 43.9805C231.924 44.5138 230.967 44.9372 229.848 45.2509C228.73 45.5541 227.464 45.7057 226.053 45.7057C224.098 45.7057 222.404 45.3398 220.971 44.6079C219.539 43.8655 218.436 42.8408 217.662 41.5338C216.888 40.2164 216.501 38.7055 216.501 37.0011C216.501 35.255 216.899 33.7284 217.693 32.4214C218.488 31.1144 219.602 30.1002 221.034 29.3788C222.477 28.6573 224.15 28.2966 226.053 28.2966C228.019 28.2966 229.712 28.6678 231.134 29.4101C232.567 30.142 233.67 31.1876 234.444 32.5469C235.218 33.8957 235.604 35.5007 235.604 37.3619C235.604 37.6756 235.599 37.9422 235.589 38.1618C235.578 38.3813 235.563 38.5591 235.542 38.695H219.905Z" fill="#2FC18C"/>
<path d="M247.141 45.7057C246.42 45.7057 245.657 45.6482 244.852 45.5332C244.057 45.4286 243.309 45.2038 242.609 44.8588C241.908 44.5138 241.338 43.9962 240.899 43.3061C240.46 42.6055 240.24 41.6697 240.24 40.4987C240.24 40.2582 240.24 40.0177 240.24 39.7772C240.24 39.5367 240.24 39.3015 240.24 39.0714V33.3468H236.523V28.6416H236.602C237.417 28.6416 238.066 28.605 238.547 28.5318C239.038 28.4586 239.404 28.2809 239.644 27.9986C239.885 27.7163 240.042 27.2719 240.115 26.6654C240.199 26.059 240.24 25.2225 240.24 24.156V23.1836H246.577V28.6416H251.172V33.3468H246.577V37.9422C246.577 38.099 246.577 38.2559 246.577 38.4127C246.577 38.5591 246.577 38.7107 246.577 38.8675C246.577 39.474 246.65 39.9863 246.796 40.4046C246.943 40.8228 247.335 41.0319 247.973 41.0319C248.349 41.0319 248.705 40.9953 249.039 40.9221C249.374 40.8489 249.625 40.7757 249.792 40.7026V45.2666C249.551 45.3711 249.201 45.4705 248.741 45.5646C248.292 45.6587 247.758 45.7057 247.141 45.7057Z" fill="#2FC18C"/>
<path d="M5.61389 16.6839C5.61389 10.9093 10.2952 6.22797 16.0698 6.22797H42.2097C47.9844 6.22797 52.6657 10.9093 52.6657 16.6839V42.8238C52.6657 48.5985 47.9844 53.2798 42.2097 53.2798H16.0698C10.2952 53.2798 5.61389 48.5985 5.61389 42.8238V16.6839Z" fill="#00D5E2"/>
<path d="M18.6838 16.6839L52.6657 32.3678V42.8238C52.6657 48.5984 47.9844 53.2797 42.2097 53.2797H35.6748L18.6838 16.6839Z" fill="#003BE5" fill-opacity="0.34"/>
<path d="M11.1942 25.405L25.508 11.0912L48.2363 33.8195L33.9225 48.1334L11.1942 25.405Z" fill="white"/>
<path d="M2.53882 51.1293C2.94875 51.5392 3.49845 51.7129 4.02893 51.6549C4.02893 51.6549 14.0399 51.7129 19.7302 46.254C19.8025 46.1914 19.87 46.1239 19.9375 46.0563C22.0013 43.9924 21.9965 40.6505 19.9375 38.5915C17.8783 36.5323 14.5365 36.5276 12.4726 38.5915L2.53882 48.5253C1.82031 49.2439 1.82031 50.4108 2.53882 51.1293Z" fill="white"/>
<path d="M11.7239 46.9023C11.8588 47.8132 11.319 49.129 10.2506 50.2536C9.92448 50.591 9.58709 50.8834 9.23846 51.1083" fill="white"/>
<path d="M7.02292 49.8712C6.93295 50.5235 6.61806 51.1195 6.12323 51.5469L7.02292 49.8712Z" fill="white"/>
<path d="M27.3867 16.2878C28.4091 15.2654 28.4091 13.6077 27.3866 12.5853C26.3642 11.5629 24.7066 11.5629 23.6841 12.5853C22.6617 13.6077 22.6617 15.2654 23.6841 16.2878C24.7066 17.3102 26.3642 17.3102 27.3867 16.2878Z" fill="#2FC18C"/>
<path d="M47.2342 35.6428C48.2567 34.6204 48.2567 32.9628 47.2342 31.9403C46.2118 30.9179 44.5542 30.9179 43.5317 31.9403C42.5093 32.9628 42.5093 34.6204 43.5317 35.6428C44.5542 36.6653 46.2118 36.6653 47.2342 35.6428Z" fill="#2FC18C"/>
<path d="M16.0176 27.6566C17.0401 26.6342 17.0401 24.9765 16.0176 23.9541C14.9952 22.9317 13.3375 22.9317 12.3151 23.9541C11.2927 24.9765 11.2927 26.6342 12.3151 27.6566C13.3375 28.679 14.9952 28.679 16.0176 27.6566Z" fill="#2FC18C"/>
<path d="M35.429 47.0681C36.4514 46.0457 36.4514 44.388 35.429 43.3656C34.4066 42.3432 32.7489 42.3432 31.7265 43.3656C30.7041 44.388 30.7041 46.0457 31.7265 47.0681C32.7489 48.0905 34.4066 48.0905 35.429 47.0681Z" fill="#2FC18C"/>
<path d="M47.5309 33.2818L46.2029 34.6098L24.4704 12.8774L25.7984 11.5494L47.5309 33.2818Z" fill="#2FC18C"/>
<path d="M34.3224 45.9604L32.9944 47.2885L11.262 25.556L12.59 24.228L34.3224 45.9604Z" fill="#2FC18C"/>
<path d="M25.8098 11.007L27.1533 12.3505L12.6049 26.8989L11.2614 25.5554L25.8098 11.007Z" fill="#2FC18C"/>
<path d="M46.9888 32.1857L48.3323 33.5292L33.7839 48.0776L32.4404 46.7341L46.9888 32.1857Z" fill="#2FC18C"/>
<path d="M37.0434 36.7901C39.5651 34.2684 38.3065 28.9213 34.2322 24.847C30.1579 20.7726 24.8107 19.514 22.289 22.0357C19.7673 24.5574 21.026 29.9046 25.1003 33.9789C29.1746 38.0532 34.5217 39.3118 37.0434 36.7901Z" fill="#2FC18C"/>
<path d="M41.0223 26.5487L26.5486 41.0223C26.4966 41.0743 26.4394 41.1117 26.3769 41.144C26.1226 41.2682 25.7952 41.2153 25.575 40.9952L17.8985 33.3188C17.6783 33.0986 17.6254 32.7712 17.7498 32.5169C17.7821 32.4546 17.8195 32.3972 17.8715 32.3452L32.345 17.8714C32.3971 17.8194 32.4545 17.782 32.5168 17.7497C32.7711 17.6254 33.0985 17.6784 33.3187 17.8984L40.9952 25.5748C41.2154 25.795 41.2683 26.1224 41.1439 26.3768C41.1116 26.4392 41.0744 26.4966 41.0223 26.5487Z" fill="#2FC18C"/>
<path fill-rule="evenodd" clip-rule="evenodd" d="M17.8715 32.3452C17.8195 32.3972 17.7821 32.4546 17.7498 32.5169C17.6254 32.7712 17.6783 33.0986 17.8985 33.3188L25.575 40.9952C25.7952 41.2153 26.1226 41.2682 26.3769 41.144C26.4394 41.1117 26.4966 41.0743 26.5486 41.0223L41.0223 26.5487C41.0744 26.4966 41.1116 26.4392 41.1439 26.3768C41.2683 26.1224 41.2154 25.795 40.9952 25.5748L33.3187 17.8984C33.0985 17.6784 32.7711 17.6254 32.5168 17.7497C32.4545 17.782 32.3971 17.8194 32.345 17.8714L17.8715 32.3452ZM32.8184 19.9858L19.9859 32.8185L26.0753 38.9079L38.9079 26.0753L32.8184 19.9858Z" fill="#036B52"/>
<path d="M51.1293 2.53887C51.5392 2.94879 51.7128 3.4985 51.6549 4.02898C51.6549 4.02898 51.7128 14.0399 46.254 19.7302C46.1913 19.8026 46.1237 19.87 46.0563 19.9376C43.9924 22.0015 40.6505 21.9967 38.5914 19.9376C36.5323 17.8785 36.5275 14.5367 38.5914 12.4728L48.5252 2.53898C49.2439 1.82036 50.4108 1.82036 51.1293 2.53887Z" fill="white"/>
<path d="M46.9021 11.724C47.813 11.8589 49.1288 11.3191 50.2534 10.2507C50.5908 9.9246 50.8832 9.58722 51.1081 9.23859" fill="white"/>
<path d="M49.871 7.02307C50.5233 6.9331 51.1194 6.61821 51.5467 6.12338L49.871 7.02307Z" fill="white"/>
<path fill-rule="evenodd" clip-rule="evenodd" d="M11.7563 37.8752C14.2164 35.4151 18.1996 35.421 20.6538 37.8752C23.1078 40.3292 23.1139 44.3125 20.6538 46.7726L20.6483 46.7781C20.5892 46.8373 20.5071 46.9196 20.4145 47.0013C17.3701 49.9123 13.2353 51.3111 9.95181 51.9934C8.29366 52.3379 6.82058 52.5063 5.76057 52.5887C5.22995 52.6299 4.80117 52.6498 4.50248 52.6593C4.3531 52.664 4.23612 52.6662 4.15508 52.6672C4.12454 52.6676 4.09909 52.6678 4.07893 52.6679C3.27384 52.7386 2.44263 52.4657 1.82253 51.8456C0.708378 50.7315 0.708458 48.9232 1.82247 47.809L1.82253 47.809L11.7563 37.8752ZM4.0348 50.642L4.03769 50.642L4.05481 50.642C4.0709 50.6419 4.09626 50.6418 4.13044 50.6413C4.19882 50.6405 4.30248 50.6386 4.43795 50.6343C4.70896 50.6257 5.10674 50.6074 5.60356 50.5687C6.59842 50.4914 7.98373 50.333 9.5396 50.0097C12.6781 49.3576 16.3846 48.0598 19.0289 45.523L19.0475 45.5052L19.0669 45.4883C19.1071 45.4535 19.1494 45.4119 19.2206 45.3406L19.2212 45.34C20.8888 43.6723 20.8852 40.9718 19.2212 39.3078C17.557 37.6436 14.8566 37.6401 13.1889 39.3078L3.2552 49.2415C3.25518 49.2415 3.25516 49.2416 3.25514 49.2416C2.93218 49.5647 2.93228 50.0901 3.25514 50.413C3.43947 50.5973 3.68165 50.6738 3.919 50.6479L3.97673 50.6416L4.03417 50.642L4.03437 50.642H4.03445L4.0348 50.642Z" fill="#003BE5"/>
<path fill-rule="evenodd" clip-rule="evenodd" d="M5.47437 50.8081C5.86994 50.4125 6.51134 50.4124 6.90698 50.808L6.91904 50.82C7.31469 51.2156 7.31475 51.857 6.91918 52.2526C6.52361 52.6483 5.88221 52.6483 5.48657 52.2528L5.47451 52.2407C5.07886 51.8452 5.0788 51.2038 5.47437 50.8081Z" fill="#003BE5"/>
<path fill-rule="evenodd" clip-rule="evenodd" d="M11.5754 45.9002C12.1288 45.8182 12.6439 46.2004 12.7259 46.7538C12.83 47.4562 12.6662 48.2092 12.3687 48.899C12.0654 49.6021 11.5935 50.3108 10.9851 50.9513L10.979 50.9577L10.979 50.9576C10.616 51.3331 10.2193 51.6811 9.78765 51.9595C9.31753 52.2628 8.69055 52.1276 8.38724 51.6575C8.08394 51.1874 8.21917 50.5604 8.68929 50.2571C8.95399 50.0863 9.23099 49.8505 9.51921 49.5527C9.97756 49.0695 10.3088 48.5593 10.5083 48.0966C10.7141 47.6196 10.7527 47.2592 10.7218 47.0507C10.6398 46.4973 11.022 45.9822 11.5754 45.9002Z" fill="#003BE5"/>
<path fill-rule="evenodd" clip-rule="evenodd" d="M7.16136 48.8677C7.71558 48.9441 8.1029 49.4554 8.02645 50.0096C7.90418 50.8961 7.47391 51.7189 6.78538 52.3135C6.36196 52.6792 5.72227 52.6324 5.35659 52.209C4.99091 51.7856 5.03771 51.1459 5.46113 50.7802C5.76226 50.5201 5.96177 50.1509 6.01944 49.7328C6.09588 49.1785 6.60714 48.7912 7.16136 48.8677Z" fill="#003BE5"/>
<path fill-rule="evenodd" clip-rule="evenodd" d="M25.5741 12.8336C25.5305 12.7901 25.4598 12.7901 25.4162 12.8336L12.7729 25.4769C12.7294 25.5205 12.7294 25.5912 12.7729 25.6348L12.1384 26.2693L12.7729 25.6348L33.705 46.5669C33.7485 46.6105 33.8192 46.6105 33.8628 46.5669L46.5061 33.9235C46.5497 33.8799 46.5497 33.8092 46.5061 33.7657L25.5741 12.8336ZM23.9836 11.401C24.8184 10.5662 26.1719 10.5662 27.0067 11.401L47.9387 32.3331C48.7735 33.1678 48.7735 34.5213 47.9387 35.3561L35.2954 47.9995C34.4606 48.8343 33.1071 48.8343 32.2724 47.9995L11.3403 27.0674L12.0566 26.3511L11.3403 27.0674C10.5055 26.2326 10.5055 24.8791 11.3403 24.0443L23.9836 11.401Z" fill="#003BE5"/>
<path fill-rule="evenodd" clip-rule="evenodd" d="M50.4129 3.25519C50.09 2.93232 49.5646 2.93224 49.2415 3.2553L39.3077 13.1891C37.64 14.8568 37.6435 17.5572 39.3077 19.2213C40.9717 20.8854 43.6722 20.889 45.3399 19.2213C45.4124 19.1487 45.4534 19.1072 45.4882 19.067L45.5051 19.0475L45.5229 19.029C48.0597 16.3846 49.3575 12.6781 50.0096 9.53965C50.333 7.98378 50.4913 6.59847 50.5687 5.60361C50.6073 5.10679 50.6256 4.70901 50.6342 4.43799C50.6385 4.30253 50.6404 4.19887 50.6412 4.13049C50.6417 4.0963 50.6418 4.07095 50.6419 4.05486L50.6419 4.03774L50.6419 4.03485L50.6415 3.97678L50.6478 3.91904C50.6738 3.6817 50.5972 3.43951 50.4129 3.25519ZM52.6678 4.07898C52.7385 3.27389 52.4656 2.44268 51.8455 1.82257C50.7314 0.708415 48.9231 0.708496 47.8089 1.82269L37.8751 11.7565C35.415 14.2166 35.4209 18.1998 37.8751 20.6539C40.3291 23.108 44.3124 23.114 46.7725 20.6539L46.7836 20.6429C46.841 20.5853 46.9216 20.5047 47.0012 20.4146C49.9122 17.3702 51.311 13.2353 51.9933 9.95186C52.3379 8.29371 52.5062 6.82063 52.5886 5.76062C52.6298 5.23 52.6497 4.80122 52.6592 4.50253C52.6639 4.35315 52.6661 4.23617 52.6671 4.15513C52.6675 4.12459 52.6677 4.09914 52.6678 4.07898Z" fill="#003BE5"/>
<path fill-rule="evenodd" clip-rule="evenodd" d="M50.8079 5.47453C51.2035 5.07892 51.8449 5.07892 52.2405 5.47453L52.2526 5.48659C52.6482 5.88219 52.6482 6.5236 52.2526 6.9192C51.857 7.31481 51.2156 7.31481 50.82 6.9192L50.8079 6.90714C50.4123 6.51154 50.4123 5.87013 50.8079 5.47453Z" fill="#003BE5"/>
<path fill-rule="evenodd" clip-rule="evenodd" d="M51.6572 8.38737C52.1273 8.69067 52.2626 9.31765 51.9593 9.78777C51.6808 10.2194 51.3329 10.6161 50.9574 10.9791L50.9511 10.9852L50.9511 10.9852C50.3106 11.5936 49.6018 12.0655 48.8987 12.3688C48.209 12.6663 47.456 12.8301 46.7535 12.7261C46.2001 12.6441 45.8179 12.129 45.8999 11.5755C45.9819 11.0221 46.497 10.6399 47.0505 10.7219C47.2589 10.7528 47.6193 10.7142 48.0963 10.5084C48.559 10.3089 49.0693 9.97768 49.5525 9.51933C49.8503 9.23111 50.086 8.95411 50.2568 8.68942C50.5601 8.2193 51.1871 8.08406 51.6572 8.38737Z" fill="#003BE5"/>
<path fill-rule="evenodd" clip-rule="evenodd" d="M52.2088 5.35671C52.6322 5.72239 52.679 6.36208 52.3133 6.7855C51.7187 7.47403 50.8959 7.90431 50.0094 8.02658C49.4552 8.10302 48.9439 7.7157 48.8675 7.16148C48.791 6.60726 49.1783 6.096 49.7326 6.01956C50.1507 5.96189 50.5199 5.76238 50.78 5.46125C51.1457 5.03783 51.7854 4.99103 52.2088 5.35671Z" fill="#003BE5"/>
</svg>
